HIERARCHY
ROOT joint_0
{
	OFFSET 0.000000 0.000000 0.000000
	CHANNELS 6 Xposition Yposition Zposition Zrotation Yrotation Xrotation 
	JOINT joint_1
	{
		OFFSET 13.542969 -4.074463 123.986084
		CHANNELS 3 Zrotation Yrotation Xrotation
		JOINT joint_2
		{
			OFFSET -0.108154 -3.018066 113.860962
			CHANNELS 3 Zrotation Yrotation Xrotation
			JOINT joint_3
			{
				OFFSET -1.139648 -3.876465 113.702026
				CHANNELS 3 Zrotation Yrotation Xrotation
				JOINT joint_4
				{
					OFFSET 13.593506 -8.582153 160.876953
					CHANNELS 3 Zrotation Yrotation Xrotation
					JOINT joint_5
					{
						OFFSET 26.480957 -11.565674 94.427979
						CHANNELS 3 Zrotation Yrotation Xrotation
						End Site
						{
							OFFSET 0.000000 0.000000 0.000000
						}
					}
				}
				JOINT joint_6
				{
					OFFSET 3.003662 -39.658691 88.713989
					CHANNELS 3 Zrotation Yrotation Xrotation
					JOINT joint_7
					{
						OFFSET -25.253906 -162.506348 -28.477051
						CHANNELS 3 Zrotation Yrotation Xrotation
						JOINT joint_8
						{
							OFFSET 23.083252 -8.502686 -295.281982
							CHANNELS 3 Zrotation Yrotation Xrotation
							JOINT joint_9
							{
								OFFSET 20.205566 -32.167908 -263.458008
								CHANNELS 3 Zrotation Yrotation Xrotation
								End Site
								{
									OFFSET 0.000000 0.000000 0.000000
								}
							}
						}
					}
				}
				JOINT joint_10
				{
					OFFSET 12.313232 30.012939 91.642944
					CHANNELS 3 Zrotation Yrotation Xrotation
					JOINT joint_11
					{
						OFFSET 31.960205 162.667969 -19.398926
						CHANNELS 3 Zrotation Yrotation Xrotation
						JOINT joint_12
						{
							OFFSET 51.325195 40.249023 -289.038086
							CHANNELS 3 Zrotation Yrotation Xrotation
							JOINT joint_13
							{
								OFFSET 70.170898 60.433594 -249.556030
								CHANNELS 3 Zrotation Yrotation Xrotation
								End Site
								{
									OFFSET 0.000000 0.000000 0.000000
								}
							}
						}
					}
				}
			}
		}
	}
	JOINT joint_14
	{
		OFFSET -15.093262 -91.803833 -113.326904
		CHANNELS 3 Zrotation Yrotation Xrotation
		JOINT joint_15
		{
			OFFSET 2.288818 -12.306763 -494.206055
			CHANNELS 3 Zrotation Yrotation Xrotation
			JOINT joint_16
			{
				OFFSET -54.691650 0.383423 -424.447006
				CHANNELS 3 Zrotation Yrotation Xrotation
				JOINT joint_17
				{
					OFFSET 202.154297 -21.791382 -80.181999
					CHANNELS 3 Zrotation Yrotation Xrotation
					End Site
					{
						OFFSET 0.000000 0.000000 0.000000
					}
				}
			}
		}
	}
	JOINT joint_18
	{
		OFFSET 10.704102 91.957275 -113.713013
		CHANNELS 3 Zrotation Yrotation Xrotation
		JOINT joint_19
		{
			OFFSET 0.427490 1.374878 -494.359924
			CHANNELS 3 Zrotation Yrotation Xrotation
			JOINT joint_20
			{
				OFFSET -53.071777 2.769531 -424.643028
				CHANNELS 3 Zrotation Yrotation Xrotation
				JOINT joint_21
				{
					OFFSET 200.264648 -28.253052 -82.862999
					CHANNELS 3 Zrotation Yrotation Xrotation
					End Site
					{
						OFFSET 0.000000 0.000000 0.000000
					}
				}
			}
		}
	}
}
MOTION
Frames: 9
Frame Time: 0.016667
-2962.974609 1235.448608 1140.272949 4.102336 -3.828688 -2.167050 -0.381839 -0.654581 2.491046 -0.395759 0.109124 -0.578537 -0.395767 -0.124973 0.380643 0.692422 1.872959 -1.654724 0.000000 0.000000 0.000000 -2.107406 0.100902 1.719810 -0.360772 0.897077 -5.411316 0.195242 -1.003272 0.937656 0.000000 0.000000 0.000000 -1.266201 1.641629 -1.002527 0.442531 1.728827 -0.409386 0.663121 1.507814 1.071266 0.000000 0.000000 0.000000 -1.773638 5.811126 7.104178 -1.365710 -5.822334 -1.009128 -1.412930 1.551815 -0.384914 0.000000 0.000000 0.000000 3.328781 -5.497204 8.126856 3.374270 -1.433867 -0.044716 3.199132 7.337990 2.297262 0.000000 0.000000 0.000000 
-2963.062744 1235.380005 1140.258057 4.097786 -3.836876 -2.168165 -0.383641 -0.652850 2.488298 -0.397643 0.108039 -0.577928 -0.397584 -0.124447 0.380334 0.693215 1.874676 -1.656712 0.000000 0.000000 0.000000 -2.092383 0.105253 1.734621 -0.359217 0.904672 -5.402676 0.196997 -1.014992 0.941805 0.000000 0.000000 0.000000 -1.257069 1.647121 -1.014010 0.442300 1.733333 -0.421770 0.666507 1.514856 1.077386 0.000000 0.000000 0.000000 -1.768740 5.796138 7.109534 -1.362331 -5.784252 -1.010036 -1.409889 1.538159 -0.385208 0.000000 0.000000 0.000000 3.329512 -5.488678 8.132796 3.374683 -1.446341 -0.044826 3.199637 7.358505 2.300284 0.000000 0.000000 0.000000 
-2963.155518 1235.308960 1140.243042 4.094013 -3.845108 -2.168309 -0.385103 -0.650551 2.485069 -0.399159 0.107471 -0.577626 -0.399030 -0.123159 0.380238 0.693729 1.874740 -1.658435 0.000000 0.000000 0.000000 -2.076909 0.108754 1.749073 -0.357581 0.911241 -5.392806 0.198563 -1.026297 0.944129 0.000000 0.000000 0.000000 -1.248123 1.651753 -1.023734 0.441307 1.737785 -0.436845 0.669219 1.520625 1.082181 0.000000 0.000000 0.000000 -1.764094 5.779368 7.114274 -1.359332 -5.742955 -1.011590 -1.407304 1.523229 -0.385820 0.000000 0.000000 0.000000 3.329853 -5.481292 8.137116 3.374679 -1.457361 -0.043832 3.199871 7.379182 2.303219 0.000000 0.000000 0.000000 
-2963.252197 1235.239624 1140.227051 4.092529 -3.853826 -2.166876 -0.387288 -0.645840 2.480969 -0.401376 0.106411 -0.576920 -0.401171 -0.122204 0.379608 0.694436 1.874933 -1.660802 0.000000 0.000000 0.000000 -2.058656 0.111928 1.762727 -0.355773 0.917451 -5.380537 0.199781 -1.037271 0.942413 0.000000 0.000000 0.000000 -1.236784 1.656157 -1.030854 0.439242 1.742924 -0.456115 0.670898 1.523749 1.085545 0.000000 0.000000 0.000000 -1.760351 5.761366 7.117676 -1.357337 -5.698378 -1.014082 -1.405816 1.507752 -0.386922 0.000000 0.000000 0.000000 3.329230 -5.475310 8.138285 3.373677 -1.465229 -0.041097 3.199337 7.398688 2.305687 0.000000 0.000000 0.000000 
-2963.354004 1235.167725 1140.211060 4.091814 -3.862720 -2.164493 -0.388947 -0.640165 2.476254 -0.403039 0.105627 -0.576185 -0.402753 -0.120651 0.378999 0.694660 1.873380 -1.662216 0.000000 0.000000 0.000000 -2.040068 0.114480 1.775998 -0.353816 0.922812 -5.366981 0.200907 -1.048554 0.939005 0.000000 0.000000 0.000000 -1.227085 1.659874 -1.036543 0.436522 1.748193 -0.477494 0.671832 1.525600 1.087326 0.000000 0.000000 0.000000 -1.757056 5.741799 7.120218 -1.355907 -5.650926 -1.016545 -1.404884 1.491746 -0.388299 0.000000 0.000000 0.000000 3.328126 -5.470107 8.138006 3.372163 -1.471907 -0.037400 3.198421 7.418439 2.308036 0.000000 0.000000 0.000000 
-2963.461914 1235.086304 1140.194946 4.091717 -3.871232 -2.162218 -0.390200 -0.634343 2.471307 -0.404298 0.104634 -0.575540 -0.403942 -0.119635 0.377890 0.694963 1.873665 -1.663121 0.000000 0.000000 0.000000 -2.022493 0.116581 1.789095 -0.351894 0.927590 -5.353849 0.202130 -1.059694 0.937105 0.000000 0.000000 0.000000 -1.218619 1.663271 -1.040903 0.433647 1.753355 -0.497968 0.671955 1.526765 1.086790 0.000000 0.000000 0.000000 -1.754118 5.720808 7.122603 -1.354907 -5.601977 -1.017566 -1.404180 1.475128 -0.389831 0.000000 0.000000 0.000000 3.326820 -5.465743 8.138433 3.370463 -1.479188 -0.034098 3.197272 7.439933 2.310531 0.000000 0.000000 0.000000 
-2963.576416 1234.992065 1140.178955 4.092545 -3.878033 -2.160863 -0.390603 -0.631805 2.466152 -0.404698 0.105379 -0.574976 -0.404371 -0.118980 0.377613 0.695828 1.876395 -1.664996 0.000000 0.000000 0.000000 -2.007841 0.118040 1.802066 -0.350072 0.931343 -5.341574 0.203432 -1.070218 0.937233 0.000000 0.000000 0.000000 -1.215169 1.666735 -1.045647 0.430806 1.758476 -0.515214 0.670617 1.526634 1.082116 0.000000 0.000000 0.000000 -1.752053 5.697505 7.125346 -1.354865 -5.552522 -1.015861 -1.404044 1.458291 -0.391609 0.000000 0.000000 0.000000 3.325278 -5.463550 8.140876 3.368580 -1.487490 -0.031644 3.195840 7.463139 2.313146 0.000000 0.000000 0.000000 
-2963.698242 1234.886230 1140.162964 4.094364 -3.884737 -2.159455 -0.390855 -0.627879 2.458923 -0.404968 0.104673 -0.572161 -0.404635 -0.118415 0.375826 0.696695 1.881132 -1.666007 0.000000 0.000000 0.000000 -1.993420 0.118914 1.815368 -0.348276 0.934621 -5.329927 0.204868 -1.080898 0.938885 0.000000 0.000000 0.000000 -1.212585 1.669882 -1.048770 0.427795 1.763457 -0.531298 0.668315 1.525844 1.074549 0.000000 0.000000 0.000000 -1.750576 5.672997 7.127715 -1.355467 -5.501609 -1.012445 -1.404309 1.441020 -0.393590 0.000000 0.000000 0.000000 3.323400 -5.461950 8.143964 3.366376 -1.496452 -0.029649 3.194035 7.488326 2.315885 0.000000 0.000000 0.000000 
-2963.820312 1234.775269 1140.150024 4.095740 -3.892058 -2.156567 -0.391055 -0.622904 2.450973 -0.405192 0.102910 -0.571197 -0.404763 -0.117702 0.374336 0.697356 1.888148 -1.665262 0.000000 0.000000 0.000000 -1.979048 0.120034 1.826352 -0.346370 0.937820 -5.318659 0.206697 -1.093117 0.943226 0.000000 0.000000 0.000000 -1.207846 1.672167 -1.049467 0.424670 1.768083 -0.548863 0.666577 1.525080 1.068995 0.000000 0.000000 0.000000 -1.749014 5.648511 7.128744 -1.356036 -5.449655 -1.009209 -1.404587 1.424163 -0.395531 0.000000 0.000000 0.000000 3.321398 -5.458491 8.144502 3.363965 -1.507934 -0.025161 3.192431 7.515276 2.318949 0.000000 0.000000 0.000000 
